<svg width="40" height="40" viewBox="0 0 40 40" fill="none" xmlns="http://www.w3.org/2000/svg">
  <path d="M13.6448 11.3137H11.3917V11.9347H13.6448V11.3137Z" fill="#DC8744"/>
  <path d="M28.6049 11.3137H26.3518V11.9347H28.6049V11.3137Z" fill="#DC8744"/>
  <path d="M30.9999 19.3623H9.00012V29.5287C9.00012 29.9781 9.34956 30.3424 9.78068 30.3424H30.2195C30.6506 30.3424 31 29.9781 31 29.5287V19.3623H30.9999Z" fill="#DC8744"/>
  <path d="M30.9999 18.9036H9.00012V29.07C9.00012 29.5194 9.34956 29.8837 9.78068 29.8837H30.2195C30.6506 29.8837 31 29.5194 31 29.07V18.9036H30.9999Z" fill="#F6C358"/>
  <path d="M24.7528 14.0668H15.2482V8.9799C15.2482 8.63918 15.513 8.36304 15.8398 8.36304H24.1611C24.4879 8.36304 24.7528 8.63927 24.7528 8.9799V14.0668ZM16.5682 12.6906H23.4328V9.73913H16.5682V12.6906Z" fill="#DC8744"/>
  <path d="M30.9993 18.9031H9V19.3622H30.9993V18.9031Z" fill="#DC8744"/>
  <path d="M30.9999 18.9037H9.00012V12.5449C9.00012 12.0955 9.34956 11.7312 9.78068 11.7312H30.2195C30.6506 11.7312 31 12.0955 31 12.5449V18.9037H30.9999Z" fill="#FCD462"/>
  <path d="M27.6505 17.8628H25.139V18.8029H27.6505V17.8628Z" fill="#64798A"/>
  <path d="M27.6505 18.8015H25.139V20.3121H27.6505V18.8015Z" fill="#3A556A"/>
  <path d="M14.8614 17.8628H12.35V18.8029H14.8614V17.8628Z" fill="#64798A"/>
  <path d="M14.8614 18.8015H12.35V20.3121H14.8614V18.8015Z" fill="#3A556A"/>
</svg>
